@startuml
skinparam groupInheritance 2
class Member{
}
class BoardMember{
}
class Event{
}
class Conference{
}
class BoardMeeting{
}
class Location{
}
class Person{
}
class AAUOC{
}

Event <|-- Conference
Event <|-- BoardMeeting
Event "0..*"-- "0..*"Member : attendsTo

Person <|-- Member
Member <|-- BoardMember

AAUOC o-- "0..*"Person
AAUOC o-- "0..*"Location
AAUOC o-- "0..*"Event

Location "1" -- "0..*" Event : isLocated In

Conference "0..*" -- "0..*" Person : attendsTo
BoardMeeting "0..*" -- "0..*" BoardMember : attendsTo
@enduml